<?xml version="1.0" encoding="UTF-8"?>
<!DOCTYPE svg PUBLIC "-//W3C//DTD SVG 1.1//EN" "http://www.w3.org/Graphics/SVG/1.1/DTD/svg11.dtd">
<!-- Creator: CorelDRAW 2020 (64 Bit) -->
<svg xmlns="http://www.w3.org/2000/svg" xml:space="preserve" width="127mm" height="96.6046mm" version="1.1" style="shape-rendering:geometricPrecision; text-rendering:geometricPrecision; image-rendering:optimizeQuality; fill-rule:evenodd; clip-rule:evenodd"
viewBox="0 0 12700 9660.46"
 xmlns:xlink="http://www.w3.org/1999/xlink"
 xmlns:xodm="http://www.corel.com/coreldraw/odm/2003">
 <defs>
  <style type="text/css">
   <![CDATA[
    .fil3 {fill:#E6E6E6}
    .fil2 {fill:white}
    .fil0 {fill:#E6E6E6;fill-rule:nonzero}
    .fil1 {fill:white;fill-rule:nonzero}
   ]]>
  </style>
 </defs>
 <g id="Camada_x0020_1">
  <metadata id="CorelCorpID_0Corel-Layer"/>
  <path class="fil0" d="M8639.54 6485.38c55.19,-155.69 103.64,-287.15 145.37,-394.83 41.72,-107.68 65.06,-167.35 69.99,-179.47 69.54,-174.54 139.54,-332.47 209.98,-473.8 70.44,-141.33 133.25,-262.02 188.44,-362.52 64.61,-114.86 127.87,-217.61 190.23,-308.69 14.36,-16.6 28.72,-30.06 43.07,-39.48 12.12,-9.42 26.48,-16.6 43.08,-21.53 16.6,-4.94 32.3,-1.35 46.66,10.76 14.36,12.12 33.65,30.06 57.43,53.84 23.78,23.78 44.87,51.6 62.81,82.56 17.95,30.95 30.51,63.26 37.69,96.91 7.18,33.65 2.24,65.96 -14.35,96.91 -12.12,21.54 -37.24,56.09 -75.38,104.1 -38.14,48 -83.9,109.02 -136.4,183.05 -52.49,74.03 -109.47,161.52 -170.49,262.03 -61.02,100.5 -120.24,214.01 -177.67,340.98 -28.72,62.37 -61.47,137.74 -98.71,226.13 -37.24,88.39 -74.93,184.41 -113.07,287.15 30.96,-9.42 59.23,-19.29 84.36,-28.71 25.12,-9.42 47.1,-17.95 66.39,-25.13 12.12,-4.93 22.89,-7.17 32.31,-7.17 9.42,0 19.74,1.34 30.51,3.58 10.77,2.24 21.98,9.43 34.1,21.54 9.42,12.11 12.56,21.98 8.97,30.51 -3.59,8.52 -7.62,16.15 -12.56,23.33 -9.42,9.42 -19.29,16.6 -28.72,21.54 -21.53,9.42 -50.25,21.08 -86.14,34.1 -35.9,13.01 -74.03,26.91 -114.86,41.27 -4.93,2.25 -12.11,4.94 -21.54,7.18 -9.42,2.25 -21.53,5.83 -35.89,10.77 -7.18,23.78 -14.36,48.01 -21.54,71.79 -7.18,23.78 -14.35,48 -21.53,71.78 -19.29,59.68 -35.9,117.11 -50.25,172.29 -14.36,55.19 -27.37,109.03 -39.48,161.52 -43.08,193.83 -70,357.15 -80.77,489.95 -10.77,132.81 -14.8,227.92 -12.56,285.35 0,19.3 -3.14,32.76 -8.97,41.28 -5.83,8.53 -11.22,14.81 -16.16,19.74 -7.17,5.39 -14.35,8.08 -21.53,8.08 -43.07,2.24 -80.76,-2.69 -113.06,-14.8 -32.31,-12.12 -57.88,-26.93 -77.17,-43.53 -26.48,-19.29 -46.67,-40.83 -61.03,-64.61 -23.77,-40.83 -33.64,-102.29 -28.71,-184.85 4.94,-82.55 18.39,-177.22 41.28,-283.56 22.88,-106.33 51.59,-219.4 86.14,-339.19 34.55,-119.79 72.24,-236.9 113.07,-351.76l-178.37 82.87 3.59 0c-12.11,0 -21.54,-5.84 -28.72,-17.95 -7.18,-12.11 -12.13,-25.59 -14.35,-41.27 -2.23,-15.69 -3.59,-30.97 -3.59,-46.67 0,-15.7 0,-26.92 0,-34.1 0,-16.59 5.56,-22.07 17.94,-17.95 30.69,10.21 212.02,-66.26 250.16,-61.32zm1295.76 17.94c-26.47,57.43 -60.58,125.18 -102.3,202.8 -41.73,77.62 -90.18,150.31 -145.37,217.16 -55.19,66.85 -116.65,120.24 -184.85,159.72 -68.2,39.48 -140.44,48.46 -217.16,26.92 -43.07,-12.11 -77.62,-32.75 -104.09,-62.81 -26.47,-30.06 -47.11,-65.95 -62.82,-107.68 -15.69,-41.73 -25.57,-87.49 -30.5,-136.4 -4.94,-48.9 -4.94,-97.36 0,-145.37 4.93,-62.36 14.36,-121.58 28.71,-177.67 14.36,-56.08 30.06,-105.88 46.66,-148.95 19.3,-50.25 39.49,-96.92 61.02,-139.99 40.83,-76.73 84.8,-139.99 132.81,-190.23 40.83,-43.08 88.39,-76.73 143.57,-100.51 55.19,-23.78 113.51,-16.6 175.88,21.53 23.78,-23.77 50.7,-41.72 80.76,-53.83 30.06,-12.12 61.47,-15.71 95.12,-10.77 52.5,7.18 91.98,30.06 118.45,68.2 26.47,38.13 42.62,82.55 48.45,132.81 5.84,50.25 5.39,102.74 -1.79,157.93 -7.18,55.18 -15.7,101.84 -25.12,139.98 62.36,-19.3 119.79,-46.67 172.28,-82.55 52.5,-35.9 91.98,-66.86 118.46,-93.33 12.11,-12.11 22.88,-20.19 32.3,-25.12 9.42,-4.94 17.5,-5.84 23.33,-3.6 5.83,2.25 10.32,13.02 12.56,32.31 2.25,14.36 2.25,28.71 0,43.07 -4.93,28.72 -15.7,53.85 -32.3,75.38 -38.14,43.07 -91.98,84.35 -161.52,123.83 -69.55,39.49 -143.58,65.06 -222.54,77.17zm-229.72 -319.45c-2.24,28.71 0,53.39 7.18,73.58 7.17,20.19 16.59,37.69 28.71,52.04 12.12,14.37 25.12,25.58 39.49,34.11 14.35,8.52 26.46,13.9 35.88,16.15 33.66,-107.68 44.43,-188 32.31,-240.49 -4.94,-16.6 -14.36,-29.16 -28.71,-37.69 -14.36,-8.52 -29.17,-10.76 -44.87,-7.18 -15.7,3.6 -30.06,13.92 -43.07,30.51 -13.02,16.6 -21.99,43.08 -26.92,78.97zm-351.76 470.21c-19.29,64.61 -27.37,116.2 -25.13,154.34 2.25,38.14 8.53,66.85 17.95,86.14 9.42,23.78 23.78,38.14 43.07,43.07 30.96,9.43 64.61,2.25 100.51,-21.53 35.89,-23.78 70.44,-57.43 104.08,-100.5 33.66,-43.08 65.06,-93.33 95.12,-150.76 30.06,-57.43 56.99,-116.2 80.77,-175.87 -33.66,-9.43 -65.96,-27.37 -96.91,-53.85 -40.84,-33.64 -68.66,-74.02 -84.36,-122.03 -15.7,-48.01 -21.08,-96.91 -16.15,-147.16 -30.96,30.95 -59.67,73.13 -86.15,125.62 -26.46,52.49 -48.9,106.34 -68.19,161.52 -23.78,62.37 -45.32,129.22 -64.61,201.01zm1521.89 -150.76c-26.47,57.43 -60.58,125.18 -102.3,202.8 -41.72,77.62 -90.18,150.31 -145.37,217.16 -55.19,66.85 -116.65,120.24 -184.85,159.72 -68.2,39.48 -140.44,48.46 -217.15,26.92 -43.08,-12.11 -77.62,-32.75 -104.1,-62.81 -26.47,-30.06 -47.11,-65.95 -62.81,-107.68 -15.7,-41.73 -25.57,-87.49 -30.51,-136.4 -4.93,-48.9 -4.93,-97.36 0,-145.37 4.94,-62.36 14.36,-121.58 28.71,-177.67 14.36,-56.08 30.06,-105.88 46.67,-148.95 19.29,-50.25 39.48,-96.92 61.01,-139.99 40.83,-76.73 84.8,-139.99 132.81,-190.23 40.83,-43.08 88.39,-76.73 143.58,-100.51 55.18,-23.78 113.51,-16.6 175.87,21.53 23.78,-23.77 50.7,-41.72 80.76,-53.83 30.06,-12.12 61.47,-15.71 95.12,-10.77 52.5,7.18 91.98,30.06 118.45,68.2 26.47,38.13 42.63,82.55 48.46,132.81 5.83,50.25 5.38,102.74 -1.8,157.93 -7.18,55.18 -15.7,101.84 -25.12,139.98 62.36,-19.3 119.79,-46.67 172.28,-82.55 52.5,-35.9 91.98,-66.86 118.46,-93.33 12.11,-12.11 22.88,-20.19 32.3,-25.12 9.42,-4.94 17.5,-5.84 23.33,-3.6 5.83,2.25 10.32,13.02 12.57,32.31 2.24,14.36 2.24,28.71 0,43.07 -4.94,28.72 -15.71,53.85 -32.31,75.38 -38.14,43.07 -91.98,84.35 -161.52,123.83 -69.55,39.49 -143.58,65.06 -222.54,77.17zm-229.72 -319.45c-2.24,28.71 0,53.39 7.18,73.58 7.17,20.19 16.6,37.69 28.71,52.04 12.12,14.37 25.13,25.58 39.49,34.11 14.35,8.52 26.46,13.9 35.89,16.15 33.65,-107.68 44.42,-188 32.3,-240.49 -4.93,-16.6 -14.36,-29.16 -28.71,-37.69 -14.36,-8.52 -29.16,-10.76 -44.87,-7.18 -15.7,3.6 -30.06,13.92 -43.07,30.51 -13.01,16.6 -21.99,43.08 -26.92,78.97zm-351.76 470.21c-19.29,64.61 -27.37,116.2 -25.12,154.34 2.24,38.14 8.52,66.85 17.94,86.14 9.43,23.78 23.78,38.14 43.07,43.07 30.96,9.43 64.61,2.25 100.51,-21.53 35.89,-23.78 70.44,-57.43 104.09,-100.5 33.65,-43.08 65.05,-93.33 95.11,-150.76 30.07,-57.43 56.99,-116.2 80.77,-175.87 -33.65,-9.43 -65.96,-27.37 -96.91,-53.85 -40.84,-33.64 -68.66,-74.02 -84.35,-122.03 -15.71,-48.01 -21.09,-96.91 -16.16,-147.16 -30.96,30.95 -59.67,73.13 -86.14,125.62 -26.47,52.49 -48.91,106.34 -68.2,161.52 -23.78,62.37 -45.31,129.22 -64.61,201.01zm897.34 484.56c-43.07,-2.24 -85.7,-14.36 -127.42,-35.9 -41.73,-21.53 -74.03,-56.97 -96.91,-105.88 -22.88,-48.91 -32.31,-114.41 -28.72,-195.62 3.59,-81.21 28.27,-183.06 73.58,-305.09 45.32,-122.04 96.92,-220.75 154.35,-296.13 57.42,-75.38 114.85,-132.81 172.28,-172.29 57.43,-39.48 114.41,-62.81 170.5,-69.99 56.08,-7.18 105.89,-2.24 148.96,14.36 50.25,19.29 84.8,52.49 104.09,100.5 69.54,-193.83 142.23,-368.36 218.95,-524.05 76.72,-155.68 145.82,-289.39 208.18,-402.01 74.03,-131.45 144.92,-247.66 211.77,-348.17 14.36,-16.59 28.72,-30.06 43.07,-39.48 12.12,-9.42 25.58,-16.59 41.29,-21.53 15.7,-4.93 30.5,-1.35 44.86,10.77 14.36,12.11 33.65,30.06 57.43,53.84 23.78,23.77 44.87,51.59 62.82,82.55 17.94,30.96 30.5,63.27 37.69,96.91 7.17,33.66 2.24,65.96 -14.37,96.92 -14.35,21.54 -41.72,57.87 -82.55,109.47 -40.83,51.6 -89.29,117.11 -145.37,197.42 -56.08,80.31 -116.2,175.43 -179.47,285.35 -63.26,109.93 -125.18,234.66 -184.85,373.29 -38.14,91.08 -74.03,187.99 -107.68,290.74 -33.65,102.75 -63.26,211.78 -89.73,326.64 -14.36,71.78 -19.29,129.21 -14.36,172.29l0 10.76c4.94,26.47 17.95,43.07 39.48,50.25 26.47,9.43 54.29,1.8 84.35,-23.33 30.06,-25.12 59.23,-56.08 87.94,-93.32 28.72,-37.24 54.29,-76.72 77.17,-118.45 22.88,-41.73 41.28,-75.82 55.64,-102.3 2.24,-9.42 8.52,-19.29 17.95,-28.71 16.59,-16.6 38.13,-23.78 64.6,-21.54 23.78,7.18 35.9,21.54 35.9,43.07 0,9.42 -2.25,20.19 -7.18,32.31 -19.3,40.83 -48.91,98.26 -89.74,172.29 -40.82,74.03 -87.49,143.57 -139.98,208.18 -12.12,16.6 -23.78,32.3 -35.89,46.66 -23.79,28.72 -48.01,52.5 -71.79,71.79 -4.94,2.24 -7.63,4.04 -8.98,5.39 -1.34,1.34 -4.03,3.13 -8.97,5.38 -14.36,12.11 -30.96,21.99 -50.25,30.5 -19.29,8.53 -40.83,13.92 -64.61,16.16 -21.54,0 -38.13,-1.35 -50.25,-3.59 -40.83,-9.42 -73.13,-31.86 -96.91,-66.4 -23.78,-34.55 -41.73,-71.79 -53.84,-111.28 -12.11,-39.48 -20.19,-77.17 -25.13,-113.06 -4.93,-35.89 -7.17,-61.02 -7.17,-75.37 -28.72,57.43 -61.03,109.02 -96.92,154.34 -35.89,45.32 -72.24,84.35 -109.48,116.65 -37.24,32.3 -74.92,57.43 -113.06,75.38 -38.13,17.95 -75.38,25.57 -111.27,23.33zm122.04 -585.06c-45.32,100.5 -73.14,177.22 -82.56,229.71 -9.42,52.5 -12.11,91.98 -7.18,118.45 7.18,28.72 22.89,45.32 46.66,50.25 45.32,7.18 89.74,-13.91 132.81,-62.81 43.07,-48.91 82.56,-104.54 118.45,-166.91 40.83,-71.78 80.32,-155.68 118.45,-251.25 21.54,-57.43 34.1,-104.1 37.69,-139.98 3.59,-35.9 3.14,-64.17 -1.8,-84.36 -4.93,-20.19 -12.11,-34.1 -21.53,-41.27 -9.42,-7.18 -17.95,-12.12 -25.13,-14.36 -4.93,-2.24 -15.7,-3.14 -32.3,-1.8 -16.6,1.35 -39.04,12.56 -66.41,34.11 -27.37,21.53 -59.22,57.43 -95.12,107.68 -35.88,50.25 -76.72,124.28 -122.03,222.54z"/>
  <path class="fil1" d="M8174.24 5832.84c-1116.62,822.25 -1216.91,1434.86 -1526.21,2218.07l2197.31 0c440.97,0 798.5,357.53 798.5,798.5 0,440.97 -357.53,798.5 -798.5,798.5l-3335.89 0 0 -2.07c-90.11,0.04 -181.74,-15.37 -271.37,-47.83 -413.43,-149.84 -627.06,-606.54 -477.23,-1019.97l145.41 -408.71c462.61,-1300.88 447.52,-1438.42 1482.82,-2692.26l1785.16 355.77z"/>
  <path class="fil2" d="M8.47 6494.41l797.72 0c438.75,0 797.7,-358.87 797.7,-797.77l0 -4886.32c0,-438.91 -358.95,-797.78 -797.7,-797.78l-0.01 0c-438.74,0 -797.71,358.87 -797.71,797.78l0 5684.09z"/>
  <path class="fil3" d="M8.48 6494.4c0,-1741.62 1411.87,-3153.49 3153.5,-3153.5 1741.63,0 3153.51,1411.88 3153.51,3153.5 0,1741.65 -1411.87,3153.52 -3153.51,3153.51 -1741.63,0.01 -3153.52,-1411.87 -3153.5,-3153.51zm4711.58 0.03c0,860.5 -697.57,1558.08 -1558.08,1558.08 -860.51,-0.01 -1558.09,-697.59 -1558.09,-1558.09 0,-860.51 697.58,-1558.09 1558.08,-1558.09 860.52,-0.01 1558.09,697.57 1558.09,1558.1z"/>
  <path class="fil3" d="M9643.84 3166.06c0,1741.62 -1411.87,3153.49 -3153.51,3153.5 -1741.62,0 -3153.5,-1411.88 -3153.5,-3153.5 0,-1741.65 1411.87,-3153.52 3153.5,-3153.51 1741.64,-0.01 3153.52,1411.87 3153.51,3153.51zm-4711.59 -0.03c0,-860.5 697.58,-1558.08 1558.08,-1558.08 860.52,0.01 1558.09,697.59 1558.09,1558.09 0,860.51 -697.57,1558.09 -1558.08,1558.09 -860.51,0.01 -1558.09,-697.57 -1558.09,-1558.1z"/>
  <path class="fil2" d="M8.48 6494.4c0.01,-1741.61 1411.87,-3153.49 3153.5,-3153.5 870.82,0 1659.11,353.06 2229.76,923.75l-3.08 3.07c281.95,281.97 671.42,456.42 1101.68,456.41 531.86,0 1001.48,-266.5 1282.61,-673.21 859.6,-1370.02 308.46,-3111.68 -199.32,-3847.37 1207.99,441.85 2070.21,1601.5 2070.21,2962.51 -0.01,1741.61 -1411.87,3153.49 -3153.51,3153.5 -870.82,0 -1659.1,-353.06 -2229.75,-923.75l3.07 -3.07c-281.94,-281.97 -671.42,-456.42 -1101.68,-456.41 -531.85,0 -1001.48,266.5 -1282.6,673.21 -859.61,1370.02 -308.46,3111.68 199.31,3847.37 -1207.99,-441.85 -2070.2,-1601.5 -2070.2,-2962.51z"/>
 </g>
</svg>
